<svg width="2000" height="1050" viewBox="0 0 2000 1050" fill="none" xmlns="http://www.w3.org/2000/svg">
<path d="M163.709 217.987V497.728L161.961 528.324L164.584 520.456L471.424 217.987H526.498L397.992 345.182L269.486 472.376L555.346 838.661H501.146L238.016 499.476L162.835 571.159L163.709 838.661H120V217.987H163.709ZM1106.96 759.984L1127.07 797.574C1113.66 805.734 1098.22 813.601 1080.73 821.177C1063.25 828.754 1044.02 834.757 1023.04 839.186C1002.06 843.498 979.328 845.655 954.85 845.655C907.644 845.655 864.809 837.321 826.345 820.653C787.88 804.102 754.953 781.373 727.561 752.466C700.17 723.676 679.015 690.457 664.095 652.809C649.292 615.277 641.891 575.239 641.891 532.695C641.891 487.237 649.758 444.985 665.494 405.938C681.229 366.891 703.375 332.797 731.932 303.658C760.489 274.518 793.708 251.789 831.59 235.471C869.471 219.153 910.558 210.993 954.85 210.993C987.487 210.993 1018.08 215.364 1046.64 224.106C1075.2 232.848 1101.13 244.213 1124.44 258.2L1106.09 297.538C1085.69 284.717 1062.67 273.935 1037.02 265.193C1011.38 256.451 984.282 252.08 955.725 252.08C919.009 252.08 884.333 259.19 851.696 273.411C819.06 287.747 790.328 307.562 765.501 332.855C740.791 358.265 721.442 387.871 707.455 421.673C693.468 455.475 686.474 491.9 686.474 530.947C686.474 568.245 692.71 603.504 705.182 636.724C717.77 669.943 735.837 699.082 759.382 724.143C783.043 749.203 811.483 768.843 844.703 783.063C877.922 797.4 914.929 804.568 955.725 804.568C986.03 804.568 1013.83 800.314 1039.12 791.805C1064.53 783.413 1087.14 772.806 1106.96 759.984ZM1327.25 838.661H1285.29V204H1286.17L1592.13 638.472L1573.78 635.849L1878.87 204H1879.74V838.661H1837.78V302.783L1841.28 323.764L1582.52 688.301H1580.77L1320.26 323.764L1327.25 304.532V838.661Z" fill="black" fill-opacity="0.5"/>
<path d="M163.709 217.987V497.728L161.961 528.324L164.584 520.456L471.424 217.987H526.498L397.992 345.182L269.486 472.376L555.346 838.661H501.146L238.016 499.476L162.835 571.159L163.709 838.661H120V217.987H163.709ZM1106.96 759.984L1127.07 797.574C1113.66 805.734 1098.22 813.601 1080.73 821.177C1063.25 828.754 1044.02 834.757 1023.04 839.186C1002.06 843.498 979.328 845.655 954.85 845.655C907.644 845.655 864.809 837.321 826.345 820.653C787.88 804.102 754.953 781.373 727.561 752.466C700.17 723.676 679.015 690.457 664.095 652.809C649.292 615.277 641.891 575.239 641.891 532.695C641.891 487.237 649.758 444.985 665.494 405.938C681.229 366.891 703.375 332.797 731.932 303.658C760.489 274.518 793.708 251.789 831.59 235.471C869.471 219.153 910.558 210.993 954.85 210.993C987.487 210.993 1018.08 215.364 1046.64 224.106C1075.2 232.848 1101.13 244.213 1124.44 258.2L1106.09 297.538C1085.69 284.717 1062.67 273.935 1037.02 265.193C1011.38 256.451 984.282 252.08 955.725 252.08C919.009 252.08 884.333 259.19 851.696 273.411C819.06 287.747 790.328 307.562 765.501 332.855C740.791 358.265 721.442 387.871 707.455 421.673C693.468 455.475 686.474 491.9 686.474 530.947C686.474 568.245 692.71 603.504 705.182 636.724C717.77 669.943 735.837 699.082 759.382 724.143C783.043 749.203 811.483 768.843 844.703 783.063C877.922 797.4 914.929 804.568 955.725 804.568C986.03 804.568 1013.83 800.314 1039.12 791.805C1064.53 783.413 1087.14 772.806 1106.96 759.984ZM1327.25 838.661H1285.29V204H1286.17L1592.13 638.472L1573.78 635.849L1878.87 204H1879.74V838.661H1837.78V302.783L1841.28 323.764L1582.52 688.301H1580.77L1320.26 323.764L1327.25 304.532V838.661Z" fill="black" fill-opacity="0.5"/>
</svg>
