<svg width="2000" height="1050" viewBox="0 0 2000 1050" fill="none" xmlns="http://www.w3.org/2000/svg">
<g clip-path="url(#clip0_1_3)">
<g clip-path="url(#clip1_1_3)">
<g clip-path="url(#clip2_1_3)">
<g clip-path="url(#clip3_1_3)">
<g clip-path="url(#clip4_1_3)">
<g clip-path="url(#clip5_1_3)">
<g clip-path="url(#clip6_1_3)">
<g clip-path="url(#clip7_1_3)">
<path d="M162.358 217.492V497.232L160.61 527.829L163.232 519.961L470.073 217.492H525.147L268.135 471.881L553.995 838.166H499.795L236.664 498.981L161.484 570.664L162.358 838.166H118.649V217.492H162.358ZM1105.61 759.489L1125.71 797.079C1112.31 805.238 1096.87 813.106 1079.38 820.682C1061.9 828.258 1042.67 834.261 1021.69 838.69C1000.71 843.003 977.976 845.159 953.499 845.159C906.293 845.159 863.458 836.826 824.993 820.158C786.529 803.606 753.601 780.877 726.21 751.971C698.819 723.181 677.663 689.962 662.744 652.313C647.941 614.781 640.54 574.744 640.54 532.2C640.54 486.742 648.407 444.489 664.143 405.442C679.878 366.395 702.024 332.302 730.581 303.162C759.138 274.023 792.357 251.294 830.238 234.975C868.12 218.657 909.207 210.498 953.499 210.498C986.136 210.498 1016.73 214.869 1045.29 223.611C1073.85 232.353 1099.78 243.717 1123.09 257.704L1104.73 297.043C1084.34 284.221 1061.32 273.44 1035.67 264.698C1010.03 255.956 982.93 251.585 954.373 251.585C917.657 251.585 882.981 258.695 850.345 272.915C817.708 287.252 788.977 307.067 764.15 332.36C739.439 357.77 720.091 387.376 706.104 421.178C692.117 454.98 685.123 491.404 685.123 530.451C685.123 567.75 691.359 603.009 703.831 636.228C716.419 669.447 734.486 698.587 758.031 723.647C781.692 748.707 810.132 768.347 843.351 782.568C876.57 796.904 913.578 804.073 954.373 804.073C984.679 804.073 1012.48 799.818 1037.77 791.309C1063.18 782.917 1085.79 772.31 1105.61 759.489ZM1325.9 838.166H1283.94V203.505H1284.82L1590.78 637.977L1572.43 635.354L1877.52 203.505H1878.39V838.166H1836.43V302.288L1839.93 323.269L1581.17 687.805H1579.42L1318.91 323.269L1325.9 304.036V838.166Z" fill="white"/>
</g>
</g>
</g>
</g>
</g>
</g>
</g>
</g>
<defs>
<clipPath id="clip0_1_3">
<rect width="2000" height="1050" fill="white"/>
</clipPath>
<clipPath id="clip1_1_3">
<rect width="2000" height="1050" fill="white"/>
</clipPath>
<clipPath id="clip2_1_3">
<rect width="1996.62" height="1047.86" fill="white" transform="translate(0.212158 85.0682)"/>
</clipPath>
<clipPath id="clip3_1_3">
<rect width="1996.62" height="1047.86" fill="white" transform="translate(0.212158 85.0682)"/>
</clipPath>
<clipPath id="clip4_1_3">
<rect width="1996.62" height="1047.86" fill="white" transform="translate(0.212158 85.0682)"/>
</clipPath>
<clipPath id="clip5_1_3">
<rect width="1996.62" height="1047.86" fill="white" transform="translate(0.212158 85.0682)"/>
</clipPath>
<clipPath id="clip6_1_3">
<rect width="1996.62" height="878.528" fill="white" transform="translate(0.212158 85.0682)"/>
</clipPath>
<clipPath id="clip7_1_3">
<rect width="1759.74" height="641.655" fill="white" transform="translate(118.649 203.505)"/>
</clipPath>
</defs>
</svg>
